# xmcd
#
# Track frame offsets:
#	150
#	12144
#	22701
#	38120
#	54916
#	71924
#	85663
#	99679
#	111830
#	124979
#	137100
#	151431
#	168141
#	185320
#	208031
#	210589
#
# Disc length: 3033 seconds
#
# Revision: 1
# Processed by: cddbd v1.5.2PL0 Copyright (c) Steve Scherf et al.
# Submitted via: EasyCDDAExtractor 10.0.1.1
#
DISCID=d00bd710
DTITLE=The Whoreshoes - Get Lucky
DYEAR=2006
DGENRE=Country
TTITLE0=Hit the Road Tonight
TTITLE1=All the Reasons
TTITLE2=Well-Dressed Honky Tonk Man
TTITLE3=My Sweet Alone
TTITLE4=Race to the Bottom
TTITLE5=Jefferson Highway
TTITLE6=P.B.R.
TTITLE7=Nancy Whiskey
TTITLE8=Orleans Parish Prison
TTITLE9=Blue Skies
TTITLE10=Drunken Holiday
TTITLE11=Asheville
TTITLE12=New Men in My Life
TTITLE13=Rye Whiskey
TTITLE14=[silence]
TTITLE15=Cigarettes and Whiskey and Wild Wild Women
EXTD=
EXTT0=
EXTT1=
EXTT2=
EXTT3=
EXTT4=
EXTT5=
EXTT6=
EXTT7=
EXTT8=
EXTT9=
EXTT10=
EXTT11=
EXTT12=
EXTT13=
EXTT14=
EXTT15=
PLAYORDER=
